<svg width="200" height="200" viewBox="0 0 200 200" fill="none" xmlns="http://www.w3.org/2000/svg">
<g clip-path="url(#clip0_959_28476)">
<path d="M117.865 128.691C113.697 126.285 110.196 122.875 107.68 118.772L107.721 118.843C86.1432 119.676 80.7914 116.295 72.8543 104.493C66.7081 103.784 61.0118 105.648 55.8321 109.047C50.1543 112.772 45.0914 118.341 40.7488 124.38C31.4377 137.308 25.3784 152.385 23.4414 156.121C18.7136 165.228 25.1932 173.713 32.1932 173.713H167.527C170.569 173.713 174.265 170.589 174.236 164.965C174.175 153.785 166.671 131.711 156.732 118.767C153.393 124.221 148.332 128.407 142.349 130.664C136.366 132.922 129.801 133.122 123.691 131.234" fill="#C2E7FF"/>
<path d="M117.865 128.691C113.697 126.285 110.196 122.875 107.68 118.772L107.721 118.843C86.1432 119.676 80.7914 116.295 72.8543 104.493C66.7081 103.784 61.0118 105.648 55.8321 109.047C50.1543 112.772 45.0914 118.341 40.7488 124.38C31.4377 137.308 25.3784 152.385 23.4414 156.121C18.7136 165.228 25.1932 173.713 32.1932 173.713H167.527C170.569 173.713 174.265 170.589 174.236 164.965C174.175 153.785 166.671 131.711 156.732 118.767C153.393 124.221 148.332 128.407 142.349 130.664C136.366 132.922 129.801 133.122 123.691 131.234" stroke="#C2E7FF" stroke-width="0.585938" stroke-linecap="round" stroke-linejoin="round"/>
<path d="M101.14 166.7L101.466 166.852" stroke="#C2E7FF" stroke-width="0.585938" stroke-linecap="round" stroke-linejoin="round"/>
<path d="M100.339 166.318L100.824 166.552" stroke="#C2E7FF" stroke-width="0.585938" stroke-linecap="round" stroke-linejoin="round"/>
<path d="M102.113 167.148L101.891 167.046" stroke="#C2E7FF" stroke-width="0.585938" stroke-linecap="round" stroke-linejoin="round"/>
<path d="M135.774 75.2651C130.399 74.5918 124.943 75.4513 120.035 77.7447C115.127 80.0381 110.968 83.6719 108.036 88.2271C105.104 92.7823 103.519 98.0734 103.464 103.49C103.409 108.907 104.887 114.229 107.726 118.843C86.148 119.676 80.7962 116.295 72.8591 104.493C72.8591 104.493 77.2369 104.717 81.4591 103.469C85.7406 102.208 89.861 99.4318 89.0813 93.3744C87.9702 84.7651 88.3295 77.5688 90.161 71.8929C90.7471 70.0204 91.5593 68.2263 92.5795 66.5503C92.6962 66.3651 92.8184 66.167 92.9499 65.98L93.1832 65.6355C97.2888 59.6929 104.079 56.5911 113.57 56.5911C124.085 56.5911 134.385 63.4781 135.75 75.0466C135.759 75.1225 135.767 75.1911 135.774 75.2651Z" fill="#A73C22" stroke="#A73C22" stroke-width="0.585938" stroke-linecap="round" stroke-linejoin="round"/>
<path d="M104.912 84.8375C105.725 84.0255 106.792 83.5172 107.935 83.3975C109.078 83.2779 110.228 83.5541 111.191 84.1801" stroke="#1F1F1F" stroke-width="0.585938" stroke-linecap="round" stroke-linejoin="round"/>
<path d="M182.95 173.717H26.8738" stroke="#1F1F1F" stroke-width="0.585938" stroke-linecap="round" stroke-linejoin="round"/>
<path d="M100.193 143.915H84.3389L84.3111 143.954L76.4648 143.935C77.1093 139.254 79.0722 135.25 81.7741 132.748C83.663 130.998 85.913 129.984 88.3297 129.984C92.4482 129.984 96.0852 132.934 98.2704 137.439C98.3722 137.65 98.4723 137.865 98.5667 138.084C98.6111 138.18 98.6519 138.269 98.6926 138.376C98.694 138.382 98.694 138.387 98.6926 138.393C98.7371 138.495 98.7797 138.599 98.8204 138.704C98.95 139.022 99.0735 139.348 99.1908 139.68C99.2241 139.776 99.2556 139.865 99.2889 139.972C99.3222 140.08 99.3704 140.222 99.4074 140.343C99.4445 140.463 99.4759 140.565 99.5074 140.678C99.5389 140.791 99.5648 140.872 99.5908 140.971C99.6167 141.069 99.6593 141.221 99.6908 141.341C99.7223 141.461 99.7648 141.637 99.8 141.787C99.8352 141.937 99.863 142.058 99.8908 142.195C99.9593 142.513 100.022 142.837 100.076 143.163C100.12 143.421 100.157 143.667 100.193 143.915Z" fill="black" stroke="black" stroke-width="0.585938" stroke-miterlimit="10"/>
<path d="M147.532 54.8628C153.946 54.8628 159.145 49.6635 159.145 43.2498C159.145 36.8361 153.946 31.6368 147.532 31.6368C141.118 31.6368 135.919 36.8361 135.919 43.2498C135.919 49.6635 141.118 54.8628 147.532 54.8628Z" fill="#1EA446" stroke="#1EA446" stroke-width="0.585938" stroke-linecap="round" stroke-linejoin="round"/>
<path d="M180.114 64.3813H164.463C162.896 64.3813 161.625 65.6515 161.625 67.2184V82.8702C161.625 84.4371 162.896 85.7073 164.463 85.7073H180.114C181.681 85.7073 182.951 84.4371 182.951 82.8702V67.2184C182.951 65.6515 181.681 64.3813 180.114 64.3813Z" fill="#FFBB29" stroke="#FFBB29" stroke-width="0.585938" stroke-linecap="round" stroke-linejoin="round"/>
<path d="M94.6516 143.915C94.1405 147.732 92.559 152.767 90.0628 158.004C89.685 158.796 89.2986 159.568 88.9035 160.319C84.3109 169.061 78.7405 174.852 75.9702 173.53C73.7109 172.452 73.9535 166.957 76.2331 160.048C77.0574 157.575 78.0359 155.156 79.1627 152.806C80.6262 149.698 82.3581 146.723 84.3387 143.917C87.822 139.059 91.2609 136.324 93.2553 137.282C94.6905 137.965 95.1165 140.433 94.6516 143.915Z" fill="black" stroke="black" stroke-width="0.585938" stroke-miterlimit="10"/>
<path d="M104.323 110.756L97.3953 104.343" stroke="#1F1F1F" stroke-width="0.585938" stroke-linecap="round" stroke-linejoin="round"/>
<path d="M90.5471 130.274L160.945 147.319" stroke="#1F1F1F" stroke-width="0.585938" stroke-linecap="round" stroke-linejoin="round"/>
<path d="M100.204 143.992L68.3739 143.915C68.3739 143.915 65.5646 149.791 63.1887 155.235C60.8128 160.679 56.8332 160.996 58.6813 155.372C56.1443 162.441 52.7795 159.844 53.1258 157.744C50.7183 161.191 48.6109 160.354 49.1221 156.252C49.9406 149.65 53.5887 129.813 73.0332 131.007C75.1906 131.041 78.3517 131.748 81.7702 132.746C86.6109 134.157 93.6109 136.031 98.2665 137.437C99.2543 139.506 99.9081 141.719 100.204 143.992Z" fill="#A73C22" stroke="#1F1F1F" stroke-width="0.585938" stroke-linecap="round" stroke-linejoin="round"/>
<path d="M67.4051 138.985C67.4051 138.985 63.1236 142.598 62.4051 144.278C61.6866 145.958 58.6699 155.371 58.6699 155.371" stroke="#1F1F1F" stroke-width="0.585938" stroke-linecap="round" stroke-linejoin="round"/>
<path d="M62.4084 137.793C62.4084 137.793 57.7232 142.539 56.9213 144.18C56.1195 145.821 53.0898 157.791 53.0898 157.791" stroke="#1F1F1F" stroke-width="0.585938" stroke-linecap="round" stroke-linejoin="round"/>
<path d="M58.1903 135.715C56.0403 137.633 54.394 139.974 53.1329 142.405L50.7958 142.822C45.0754 143.748 42.1773 140.941 47.6162 139.359C51.5403 138.217 56.0366 136.541 58.1903 135.715Z" fill="#A73C22" stroke="#1F1F1F" stroke-width="0.585938" stroke-linecap="round" stroke-linejoin="round"/>
<path d="M102.682 167.406L101.786 168.95C101.633 169.214 101.429 169.446 101.186 169.631C100.943 169.817 100.666 169.952 100.371 170.031C100.076 170.109 99.7678 170.128 99.465 170.087C99.1622 170.047 98.8705 169.946 98.6064 169.793L97.1731 168.959C96.9089 168.806 96.6775 168.603 96.492 168.36C96.3066 168.117 96.1708 167.841 96.0924 167.545C96.0139 167.25 95.9944 166.943 96.035 166.64C96.0755 166.337 96.1753 166.046 96.3287 165.782L96.9842 164.654C98.9175 165.643 100.929 166.63 102.682 167.406Z" fill="white" stroke="#1F1F1F" stroke-width="0.585938" stroke-linecap="round" stroke-linejoin="round"/>
<path d="M114.454 159.422C115.647 162.071 115.795 167.259 109.071 164.263C109.071 164.263 110.508 169.745 106.514 168.828C102.312 167.863 89.1062 160.433 88.9044 160.309L76.2358 160.041C77.0602 157.568 78.0386 155.149 79.1655 152.798C80.6289 149.69 82.3608 146.716 84.3414 143.909H108.641L112.088 147.243C114.038 146.502 115.362 146.791 115.977 148.239C118.106 151.576 122.21 158.571 114.454 159.422Z" fill="#A73C22" stroke="#1F1F1F" stroke-width="0.585938" stroke-linecap="round" stroke-linejoin="round"/>
<path d="M114.454 159.42C110.547 158.765 107.156 157.087 103.197 154.755" stroke="#1F1F1F" stroke-width="0.585938" stroke-linecap="round" stroke-linejoin="round"/>
<path d="M109.072 164.261C105.62 162.883 104.185 162.431 100.426 159.952" stroke="#1F1F1F" stroke-width="0.585938" stroke-linecap="round" stroke-linejoin="round"/>
<path d="M125.282 128.483L111.489 152.239L105.788 149.494L119.826 125.317L125.282 128.483Z" fill="white" stroke="#1F1F1F" stroke-width="0.585938" stroke-linecap="round" stroke-linejoin="round"/>
<path d="M112.808 152.872L111.49 152.239L105.788 149.494L104.399 148.826" stroke="#1F1F1F" stroke-width="0.585938" stroke-linecap="round" stroke-linejoin="round"/>
<path d="M132.208 132.518C148.079 132.518 160.946 119.652 160.946 103.781C160.946 87.9102 148.079 75.0442 132.208 75.0442C116.337 75.0442 103.471 87.9102 103.471 103.781C103.471 119.652 116.337 132.518 132.208 132.518Z" fill="white" stroke="#1F1F1F" stroke-width="0.585938" stroke-linecap="round" stroke-linejoin="round"/>
<path d="M154.931 103.784C154.925 108.516 153.44 113.127 150.683 116.974C147.927 120.82 144.038 123.709 139.559 125.236C135.08 126.763 130.236 126.852 125.704 125.49C121.172 124.129 117.179 121.385 114.283 117.642C111.388 113.899 109.734 109.345 109.555 104.616C109.375 99.8874 110.678 95.2209 113.281 91.2691C115.884 87.3173 119.657 84.278 124.072 82.5762C128.488 80.8744 133.325 80.5953 137.907 81.778C142.782 83.0411 147.099 85.8878 150.18 89.8709C153.262 93.8539 154.933 98.7477 154.931 103.784Z" fill="white" stroke="#1F1F1F" stroke-width="0.585938" stroke-linecap="round" stroke-linejoin="round"/>
<path d="M152.509 114.011C150.588 117.827 147.63 121.025 143.975 123.237C140.32 125.449 136.115 126.587 131.843 126.519C127.571 126.452 123.405 125.182 119.822 122.855C116.238 120.529 113.383 117.24 111.583 113.365L126.3 102.735C128.285 102.78 130.263 102.991 132.213 103.365C134.377 103.755 136.508 104.312 138.587 105.031C143.216 106.633 148.353 109.365 152.509 114.011Z" fill="#C2E7FF" stroke="#1F1F1F" stroke-width="0.585938" stroke-linecap="round" stroke-linejoin="round"/>
<path d="M132.222 103.358L128.011 116.974C128.011 116.974 135.639 109.837 138.596 105.021" fill="black"/>
<path d="M132.222 103.358L128.011 116.974C128.011 116.974 135.639 109.837 138.596 105.021" stroke="black" stroke-width="0.585938" stroke-miterlimit="10"/>
<path d="M138.078 82.004C136.137 110.758 128.819 122.158 116.919 120.597C113.166 117.178 110.665 112.601 109.815 107.595C108.965 102.59 109.815 97.444 112.23 92.9779C114.645 88.5119 118.485 84.9827 123.139 82.9529C127.793 80.9231 132.992 80.5095 137.908 81.7781L138.078 82.004Z" fill="#A73C22" stroke="#1F1F1F" stroke-width="0.585938" stroke-linecap="round" stroke-linejoin="round"/>
<path d="M128.401 93.3738C128.726 93.3738 128.99 92.9692 128.99 92.4701C128.99 91.971 128.726 91.5664 128.401 91.5664C128.076 91.5664 127.812 91.971 127.812 92.4701C127.812 92.9692 128.076 93.3738 128.401 93.3738Z" fill="#1F1F1F" stroke="#1F1F1F" stroke-width="0.585938" stroke-linecap="round" stroke-linejoin="round"/>
<path d="M120.22 94.8632C119.085 101.084 122.209 108.322 122.209 108.322L117.909 107.53" stroke="#1F1F1F" stroke-width="0.585938" stroke-linecap="round" stroke-linejoin="round"/>
<path d="M132.983 86.1071C132.493 85.6016 131.901 85.205 131.246 84.9432C130.592 84.6815 129.89 84.5604 129.186 84.5878C128.482 84.6152 127.792 84.7906 127.16 85.1024C126.528 85.4143 125.969 85.8557 125.519 86.3979" stroke="#1F1F1F" stroke-width="0.585938" stroke-linecap="round" stroke-linejoin="round"/>
<path d="M120.062 35.1597C113.918 38.5912 107.738 41.9393 104.714 52.7523C93.7603 24.7764 51.4584 1.31895 16.8992 78.2504" stroke="#1F1F1F" stroke-width="0.585938" stroke-linecap="round" stroke-linejoin="round"/>
<path d="M23.4475 156.12C18.7197 165.228 25.1993 173.713 32.1993 173.713" stroke="#1F1F1F" stroke-width="0.585938" stroke-linecap="round" stroke-linejoin="round"/>
<path d="M107.685 118.772L107.726 118.842C86.148 119.676 80.7962 116.294 72.8591 104.492" stroke="#1F1F1F" stroke-width="0.585938" stroke-linecap="round" stroke-linejoin="round"/>
<path d="M135.749 75.0444C134.385 63.4759 124.083 56.5889 113.57 56.5889C105.722 56.5889 99.7234 58.7111 95.5586 62.8055C95.5734 62.5241 95.5808 62.25 95.5808 61.9574C95.5802 59.4431 95.0051 56.9623 93.8993 54.7042C92.7936 52.4462 91.1865 50.4706 89.2007 48.9284C87.2149 47.3863 84.903 46.3183 82.4415 45.8059C79.98 45.2936 77.434 45.3505 74.9978 45.9723C72.5617 46.5942 70.2998 47.7644 68.385 49.3938C66.4701 51.0232 64.9529 53.0685 63.9492 55.3738C62.9454 57.679 62.4817 60.1831 62.5934 62.6948C62.7052 65.2066 63.3894 67.6597 64.5938 69.8667C60.9208 67.805 56.5985 67.2259 52.5124 68.248C48.4263 69.2701 44.8856 71.816 42.6159 75.3641C40.3461 78.9122 39.519 83.194 40.304 87.3322C41.089 91.4704 43.4267 95.1518 46.8382 97.6222C40.6697 98.8796 28.2345 102.333 25.8864 110.05C22.7382 120.394 60.1975 131.794 63.3457 121.45C65.516 114.319 58.4994 105.407 53.9327 100.561C56.289 100.935 58.6984 100.793 60.9948 100.146C63.2912 99.4991 65.42 98.362 67.2347 96.8131C69.0493 95.2642 70.5067 93.3403 71.5063 91.1741C72.506 89.0078 73.0242 86.6506 73.0253 84.2648C73.0301 81.5008 72.337 78.7804 71.0105 76.3556C73.8733 77.9586 77.149 78.6719 80.4191 78.4043C83.6893 78.1368 86.8055 76.9007 89.3697 74.8537C88.2586 80.0074 88.1531 86.1963 89.0771 93.3722C89.8568 99.4296 85.7438 102.206 81.4549 103.467C81.4549 103.467 100.309 102.57 97.1438 84.1C95.4771 74.3556 104.39 72.5518 106.49 81.0556C113.492 71.2889 117.99 73.5056 122.623 76.6759C126.838 75.196 131.339 74.7124 135.772 75.263C135.766 75.1907 135.759 75.1222 135.749 75.0444Z" fill="#3C4043" stroke="#1F1F1F" stroke-width="0.585938" stroke-linecap="round" stroke-linejoin="round"/>
<path d="M180.114 64.3813H164.463C162.896 64.3813 161.625 65.6515 161.625 67.2184V82.8702C161.625 84.4371 162.896 85.7073 164.463 85.7073H180.114C181.681 85.7073 182.951 84.4371 182.951 82.8702V67.2184C182.951 65.6515 181.681 64.3813 180.114 64.3813Z" fill="#FFBB29" stroke="#FFBB29" stroke-width="0.585938" stroke-linecap="round" stroke-linejoin="round"/>
<path d="M182.95 82.8702V67.2184C182.95 66.466 182.651 65.7443 182.119 65.2123C181.587 64.6802 180.866 64.3813 180.113 64.3813" stroke="#1F1F1F" stroke-width="0.585938" stroke-linecap="round" stroke-linejoin="round"/>
<path d="M135.913 43.2503C135.913 41.7255 136.213 40.2156 136.797 38.8069C137.38 37.3982 138.236 36.1182 139.314 35.04C140.392 33.9618 141.672 33.1065 143.081 32.523C144.49 31.9395 145.999 31.6392 147.524 31.6392" stroke="#1F1F1F" stroke-width="0.585938" stroke-linecap="round" stroke-linejoin="round"/>
</g>
<defs>
<clipPath id="clip0_959_28476">
<rect width="166.885" height="148.393" fill="white" transform="translate(16.4824 25.7408)"/>
</clipPath>
</defs>
</svg>
